<?xml version="1.0" encoding="utf-8"?>
<!-- Generator: Adobe Illustrator 21.1.0, SVG Export Plug-In . SVG Version: 6.00 Build 0)  -->
<svg version="1.1" id="Слой_1" xmlns="http://www.w3.org/2000/svg" xmlns:xlink="http://www.w3.org/1999/xlink" x="0px" y="0px"
	 viewBox="0 0 228.6 28.8" style="enable-background:new 0 0 228.6 28.8;" xml:space="preserve">
<style type="text/css">
	.st0{fill:#FFFFFF;}
	.st1{fill:#F3CA07;}
</style>
<path class="st0" d="M6.8,13.6V7.3H12c2.3,0,4,1.3,4,3.2s-1.7,3.2-4,3.2H6.8z M0,28.4h6.8v-8.5h5.9c6,0,10.4-3.9,10.4-9.4
	c0-5.5-4.4-9.4-10.4-9.4H0V28.4z"/>
<path class="st0" d="M31.7,11.7V7.8H25v20.5h6.7V19l0,0.1c0-3.8,2.5-6.2,6.7-6.2V7.4C35.5,7.4,33.1,9,31.7,11.7L31.7,11.7z"/>
<path class="st0" d="M50.3,23.3c-2.7,0-5-2.4-5-5.2c0-2.8,2.3-5.1,5-5.1c2.7,0,5,2.3,5,5.1C55.4,20.9,53.1,23.3,50.3,23.3L50.3,23.3
	z M50.3,28.8c6.2,0,11.4-4.9,11.4-10.8c0-5.8-5.2-10.7-11.4-10.7c-6.2,0-11.4,4.9-11.4,10.7C38.9,23.9,44.1,28.8,50.3,28.8z"/>
<path class="st0" d="M74.6,23.3c-2.9,0-5-2.1-5-5.2c0-3,2.1-5.1,5-5.1c2.8,0,4.7,2.1,4.7,5.1C79.3,21.1,77.4,23.3,74.6,23.3
	L74.6,23.3z M79.3,0.6v9.8c-1.6-1.9-4-3.1-6.7-3.1c-5.5,0-9.4,4.4-9.4,10.7c0,6.3,3.9,10.8,9.4,10.8c2.7,0,5.1-1.2,6.7-3.1v2.6H86
	V0.6H79.3z"/>
<path class="st0" d="M102.9,7.8v11.9l0-0.1c0,2-1.5,3.6-3.6,3.6c-2.1,0-3.5-1.6-3.5-3.9V7.8h-6.4v13.1c0,4.6,3.1,7.9,7.5,7.9
	c2.6,0,4.8-1.1,6-2.8v2.3h6.7V7.8H102.9z"/>
<path class="st0" d="M123.3,28.8c3.6,0,6.5-1.5,8.5-3.8l-4.4-3.7c-1,1.1-2.5,1.8-4,1.8c-2.7,0-4.9-2.4-4.9-5.2
	c0-2.7,2.3-5.1,4.9-5.1c1.4,0,3,0.8,3.9,1.7l4.4-3.7c-2-2.2-4.8-3.7-8.3-3.7c-6.2,0-11.4,4.9-11.4,10.7
	C112,23.9,117.2,28.8,123.3,28.8L123.3,28.8z"/>
<path class="st0" d="M146.1,22.5c-1.8,1.1-4.6,1.4-4.6-1.5v-7.8h4.6V7.8h-4.6V1.6l-6.4,1.5v4.7h-2.7v5.4h2.7v9.1
	c0,3.9,2.7,6.6,6.6,6.6c1.4,0,3.2-0.4,4.5-1.1V22.5z"/>
<polygon class="st0" points="156.5,22.3 156.5,1.1 149.7,1.1 149.7,28.4 169.6,28.4 169.6,22.3 "/>
<path class="st0" d="M181.6,12.8c2,0,3.4,1.2,4,3.1h-8.3C178,14,179.6,12.8,181.6,12.8L181.6,12.8z M181.6,23.4
	c-2.2,0-3.8-1.4-4.4-3.5h14.6c0-7.8-3.8-12.6-10.3-12.6c-6.2,0-10.7,4.4-10.7,10.7c0,6.3,4.7,10.8,11,10.8c3.1,0,6.6-1.3,8.4-3.2
	l-4-4C185,22.7,183.2,23.4,181.6,23.4z"/>
<path class="st0" d="M204.7,23.3c-2.9,0-5-2.1-5-5.2c0-3,2.1-5.1,5-5.1c2.8,0,4.7,2.1,4.7,5.1C209.4,21.1,207.5,23.3,204.7,23.3
	L204.7,23.3z M209.4,0.6v9.8c-1.6-1.9-4-3.1-6.7-3.1c-5.5,0-9.4,4.4-9.4,10.7c0,6.3,3.9,10.8,9.4,10.8c2.7,0,5.1-1.2,6.7-3.1v2.6
	h6.7V0.6H209.4z"/>
<path class="st1" d="M224,19.2c2.5,0,4.6,2,4.6,4.6c0,2.5-2,4.6-4.6,4.6c-2.5,0-4.6-2-4.6-4.6C219.4,21.3,221.5,19.2,224,19.2
	L224,19.2z"/>
<g>
	<path class="st0" d="M222.4,0.9h-1v2.7H221V0.9h-1V0.6h2.4V0.9z"/>
	<path class="st0" d="M223.6,0.6l1,2.5h0l1-2.5h0.5v3.1h-0.4V2.5l0-1.2l0,0l-1,2.5h-0.3l-1-2.5l0,0l0,1.2v1.2h-0.4V0.6H223.6z"/>
</g>
</svg>
